<mxfile host="app.diagrams.net" agent="Mozilla/5.0 (Windows NT 10.0; Win64; x64) AppleWebKit/537.36 (KHTML, like Gecko) Chrome/131.0.0.0 Safari/537.36" version="24.9.0">
  <diagram name="Страница — 1" id="fvu74d6nLAurT5HDb2t1">
    <mxGraphModel dx="5607" dy="1318" grid="1" gridSize="10" guides="1" tooltips="1" connect="1" arrows="1" fold="1" page="1" pageScale="1" pageWidth="827" pageHeight="1169" math="0" shadow="0">
      <root>
        <mxCell id="0" />
        <mxCell id="1" parent="0" />
        <mxCell id="E3T1B1passS4D4dBxZ9_-2" value="User" style="swimlane;fontStyle=1;align=center;verticalAlign=top;childLayout=stackLayout;horizontal=1;startSize=26;horizontalStack=0;resizeParent=1;resizeParentMax=0;resizeLast=0;collapsible=1;marginBottom=0;whiteSpace=wrap;html=1;" vertex="1" parent="1">
          <mxGeometry x="905" y="1550" width="160" height="86" as="geometry" />
        </mxCell>
        <mxCell id="E3T1B1passS4D4dBxZ9_-3" value="+ Id: int" style="text;strokeColor=none;fillColor=none;align=left;verticalAlign=top;spacingLeft=4;spacingRight=4;overflow=hidden;rotatable=0;points=[[0,0.5],[1,0.5]];portConstraint=eastwest;whiteSpace=wrap;html=1;" vertex="1" parent="E3T1B1passS4D4dBxZ9_-2">
          <mxGeometry y="26" width="160" height="26" as="geometry" />
        </mxCell>
        <mxCell id="E3T1B1passS4D4dBxZ9_-6" value="+ FIO: string" style="text;strokeColor=none;fillColor=none;align=left;verticalAlign=top;spacingLeft=4;spacingRight=4;overflow=hidden;rotatable=0;points=[[0,0.5],[1,0.5]];portConstraint=eastwest;whiteSpace=wrap;html=1;" vertex="1" parent="E3T1B1passS4D4dBxZ9_-2">
          <mxGeometry y="52" width="160" height="26" as="geometry" />
        </mxCell>
        <mxCell id="E3T1B1passS4D4dBxZ9_-4" value="" style="line;strokeWidth=1;fillColor=none;align=left;verticalAlign=middle;spacingTop=-1;spacingLeft=3;spacingRight=3;rotatable=0;labelPosition=right;points=[];portConstraint=eastwest;strokeColor=inherit;" vertex="1" parent="E3T1B1passS4D4dBxZ9_-2">
          <mxGeometry y="78" width="160" height="8" as="geometry" />
        </mxCell>
        <mxCell id="E3T1B1passS4D4dBxZ9_-7" value="Computer" style="swimlane;fontStyle=1;align=center;verticalAlign=top;childLayout=stackLayout;horizontal=1;startSize=26;horizontalStack=0;resizeParent=1;resizeParentMax=0;resizeLast=0;collapsible=1;marginBottom=0;whiteSpace=wrap;html=1;" vertex="1" parent="1">
          <mxGeometry x="950" y="2430" width="160" height="216" as="geometry" />
        </mxCell>
        <mxCell id="E3T1B1passS4D4dBxZ9_-8" value="+ Id: int" style="text;strokeColor=none;fillColor=none;align=left;verticalAlign=top;spacingLeft=4;spacingRight=4;overflow=hidden;rotatable=0;points=[[0,0.5],[1,0.5]];portConstraint=eastwest;whiteSpace=wrap;html=1;" vertex="1" parent="E3T1B1passS4D4dBxZ9_-7">
          <mxGeometry y="26" width="160" height="26" as="geometry" />
        </mxCell>
        <mxCell id="E3T1B1passS4D4dBxZ9_-11" value="+ Type: string" style="text;strokeColor=none;fillColor=none;align=left;verticalAlign=top;spacingLeft=4;spacingRight=4;overflow=hidden;rotatable=0;points=[[0,0.5],[1,0.5]];portConstraint=eastwest;whiteSpace=wrap;html=1;" vertex="1" parent="E3T1B1passS4D4dBxZ9_-7">
          <mxGeometry y="52" width="160" height="26" as="geometry" />
        </mxCell>
        <mxCell id="E3T1B1passS4D4dBxZ9_-12" value="+ Processor: string" style="text;strokeColor=none;fillColor=none;align=left;verticalAlign=top;spacingLeft=4;spacingRight=4;overflow=hidden;rotatable=0;points=[[0,0.5],[1,0.5]];portConstraint=eastwest;whiteSpace=wrap;html=1;" vertex="1" parent="E3T1B1passS4D4dBxZ9_-7">
          <mxGeometry y="78" width="160" height="26" as="geometry" />
        </mxCell>
        <mxCell id="E3T1B1passS4D4dBxZ9_-13" value="+ Videocard: string" style="text;strokeColor=none;fillColor=none;align=left;verticalAlign=top;spacingLeft=4;spacingRight=4;overflow=hidden;rotatable=0;points=[[0,0.5],[1,0.5]];portConstraint=eastwest;whiteSpace=wrap;html=1;" vertex="1" parent="E3T1B1passS4D4dBxZ9_-7">
          <mxGeometry y="104" width="160" height="26" as="geometry" />
        </mxCell>
        <mxCell id="E3T1B1passS4D4dBxZ9_-14" value="+ RAM: string" style="text;strokeColor=none;fillColor=none;align=left;verticalAlign=top;spacingLeft=4;spacingRight=4;overflow=hidden;rotatable=0;points=[[0,0.5],[1,0.5]];portConstraint=eastwest;whiteSpace=wrap;html=1;" vertex="1" parent="E3T1B1passS4D4dBxZ9_-7">
          <mxGeometry y="130" width="160" height="26" as="geometry" />
        </mxCell>
        <mxCell id="E3T1B1passS4D4dBxZ9_-15" value="+ CompDesc: string" style="text;strokeColor=none;fillColor=none;align=left;verticalAlign=top;spacingLeft=4;spacingRight=4;overflow=hidden;rotatable=0;points=[[0,0.5],[1,0.5]];portConstraint=eastwest;whiteSpace=wrap;html=1;" vertex="1" parent="E3T1B1passS4D4dBxZ9_-7">
          <mxGeometry y="156" width="160" height="26" as="geometry" />
        </mxCell>
        <mxCell id="E3T1B1passS4D4dBxZ9_-16" value="+ Count: int" style="text;strokeColor=none;fillColor=none;align=left;verticalAlign=top;spacingLeft=4;spacingRight=4;overflow=hidden;rotatable=0;points=[[0,0.5],[1,0.5]];portConstraint=eastwest;whiteSpace=wrap;html=1;" vertex="1" parent="E3T1B1passS4D4dBxZ9_-7">
          <mxGeometry y="182" width="160" height="26" as="geometry" />
        </mxCell>
        <mxCell id="E3T1B1passS4D4dBxZ9_-10" value="" style="line;strokeWidth=1;fillColor=none;align=left;verticalAlign=middle;spacingTop=-1;spacingLeft=3;spacingRight=3;rotatable=0;labelPosition=right;points=[];portConstraint=eastwest;strokeColor=inherit;" vertex="1" parent="E3T1B1passS4D4dBxZ9_-7">
          <mxGeometry y="208" width="160" height="8" as="geometry" />
        </mxCell>
        <mxCell id="E3T1B1passS4D4dBxZ9_-17" value="Procedure" style="swimlane;fontStyle=1;align=center;verticalAlign=top;childLayout=stackLayout;horizontal=1;startSize=26;horizontalStack=0;resizeParent=1;resizeParentMax=0;resizeLast=0;collapsible=1;marginBottom=0;whiteSpace=wrap;html=1;" vertex="1" parent="1">
          <mxGeometry x="730" y="2430" width="160" height="164" as="geometry" />
        </mxCell>
        <mxCell id="E3T1B1passS4D4dBxZ9_-18" value="+ ID: int" style="text;strokeColor=none;fillColor=none;align=left;verticalAlign=top;spacingLeft=4;spacingRight=4;overflow=hidden;rotatable=0;points=[[0,0.5],[1,0.5]];portConstraint=eastwest;whiteSpace=wrap;html=1;" vertex="1" parent="E3T1B1passS4D4dBxZ9_-17">
          <mxGeometry y="26" width="160" height="26" as="geometry" />
        </mxCell>
        <mxCell id="E3T1B1passS4D4dBxZ9_-22" value="+ Name: string" style="text;strokeColor=none;fillColor=none;align=left;verticalAlign=top;spacingLeft=4;spacingRight=4;overflow=hidden;rotatable=0;points=[[0,0.5],[1,0.5]];portConstraint=eastwest;whiteSpace=wrap;html=1;" vertex="1" parent="E3T1B1passS4D4dBxZ9_-17">
          <mxGeometry y="52" width="160" height="26" as="geometry" />
        </mxCell>
        <mxCell id="E3T1B1passS4D4dBxZ9_-23" value="+ Price: decimal" style="text;strokeColor=none;fillColor=none;align=left;verticalAlign=top;spacingLeft=4;spacingRight=4;overflow=hidden;rotatable=0;points=[[0,0.5],[1,0.5]];portConstraint=eastwest;whiteSpace=wrap;html=1;" vertex="1" parent="E3T1B1passS4D4dBxZ9_-17">
          <mxGeometry y="78" width="160" height="26" as="geometry" />
        </mxCell>
        <mxCell id="E3T1B1passS4D4dBxZ9_-24" value="+ Description: string" style="text;strokeColor=none;fillColor=none;align=left;verticalAlign=top;spacingLeft=4;spacingRight=4;overflow=hidden;rotatable=0;points=[[0,0.5],[1,0.5]];portConstraint=eastwest;whiteSpace=wrap;html=1;" vertex="1" parent="E3T1B1passS4D4dBxZ9_-17">
          <mxGeometry y="104" width="160" height="26" as="geometry" />
        </mxCell>
        <mxCell id="E3T1B1passS4D4dBxZ9_-19" value="+ Durability: TimeSpan" style="text;strokeColor=none;fillColor=none;align=left;verticalAlign=top;spacingLeft=4;spacingRight=4;overflow=hidden;rotatable=0;points=[[0,0.5],[1,0.5]];portConstraint=eastwest;whiteSpace=wrap;html=1;" vertex="1" parent="E3T1B1passS4D4dBxZ9_-17">
          <mxGeometry y="130" width="160" height="26" as="geometry" />
        </mxCell>
        <mxCell id="E3T1B1passS4D4dBxZ9_-20" value="" style="line;strokeWidth=1;fillColor=none;align=left;verticalAlign=middle;spacingTop=-1;spacingLeft=3;spacingRight=3;rotatable=0;labelPosition=right;points=[];portConstraint=eastwest;strokeColor=inherit;" vertex="1" parent="E3T1B1passS4D4dBxZ9_-17">
          <mxGeometry y="156" width="160" height="8" as="geometry" />
        </mxCell>
        <mxCell id="E3T1B1passS4D4dBxZ9_-25" value="Time" style="swimlane;fontStyle=1;align=center;verticalAlign=top;childLayout=stackLayout;horizontal=1;startSize=26;horizontalStack=0;resizeParent=1;resizeParentMax=0;resizeLast=0;collapsible=1;marginBottom=0;whiteSpace=wrap;html=1;" vertex="1" parent="1">
          <mxGeometry x="510" y="2430" width="160" height="112" as="geometry" />
        </mxCell>
        <mxCell id="E3T1B1passS4D4dBxZ9_-26" value="+ time: TimeSpan" style="text;strokeColor=none;fillColor=none;align=left;verticalAlign=top;spacingLeft=4;spacingRight=4;overflow=hidden;rotatable=0;points=[[0,0.5],[1,0.5]];portConstraint=eastwest;whiteSpace=wrap;html=1;" vertex="1" parent="E3T1B1passS4D4dBxZ9_-25">
          <mxGeometry y="26" width="160" height="26" as="geometry" />
        </mxCell>
        <mxCell id="E3T1B1passS4D4dBxZ9_-29" value="+ user: string" style="text;strokeColor=none;fillColor=none;align=left;verticalAlign=top;spacingLeft=4;spacingRight=4;overflow=hidden;rotatable=0;points=[[0,0.5],[1,0.5]];portConstraint=eastwest;whiteSpace=wrap;html=1;" vertex="1" parent="E3T1B1passS4D4dBxZ9_-25">
          <mxGeometry y="52" width="160" height="26" as="geometry" />
        </mxCell>
        <mxCell id="E3T1B1passS4D4dBxZ9_-27" value="+ ProcInfo: string" style="text;strokeColor=none;fillColor=none;align=left;verticalAlign=top;spacingLeft=4;spacingRight=4;overflow=hidden;rotatable=0;points=[[0,0.5],[1,0.5]];portConstraint=eastwest;whiteSpace=wrap;html=1;" vertex="1" parent="E3T1B1passS4D4dBxZ9_-25">
          <mxGeometry y="78" width="160" height="26" as="geometry" />
        </mxCell>
        <mxCell id="E3T1B1passS4D4dBxZ9_-28" value="" style="line;strokeWidth=1;fillColor=none;align=left;verticalAlign=middle;spacingTop=-1;spacingLeft=3;spacingRight=3;rotatable=0;labelPosition=right;points=[];portConstraint=eastwest;strokeColor=inherit;" vertex="1" parent="E3T1B1passS4D4dBxZ9_-25">
          <mxGeometry y="104" width="160" height="8" as="geometry" />
        </mxCell>
        <mxCell id="E3T1B1passS4D4dBxZ9_-46" value="AdminViewModel" style="swimlane;fontStyle=1;align=center;verticalAlign=top;childLayout=stackLayout;horizontal=1;startSize=26;horizontalStack=0;resizeParent=1;resizeParentMax=0;resizeLast=0;collapsible=1;marginBottom=0;whiteSpace=wrap;html=1;" vertex="1" parent="1">
          <mxGeometry x="340" y="1710" width="350" height="340" as="geometry" />
        </mxCell>
        <mxCell id="E3T1B1passS4D4dBxZ9_-47" value="&lt;div&gt;- _username : string&lt;/div&gt;&lt;div&gt;- _durab : string&lt;/div&gt;&lt;div&gt;- _prName : string&lt;/div&gt;&lt;div&gt;- _price : string&lt;/div&gt;&lt;div&gt;- _description : string&lt;/div&gt;&lt;div&gt;- sqlCon : SqlConnection&lt;br&gt;&lt;div&gt;+ Name : string&lt;/div&gt;&lt;div&gt;+ durab : string&lt;/div&gt;&lt;div&gt;+ namePr : string&lt;/div&gt;&lt;div&gt;+ pricePr : string&lt;/div&gt;&lt;div&gt;+ descriptionPr : string&lt;/div&gt;&lt;div&gt;+ RegProcCommand : ICommand&lt;/div&gt;&lt;div&gt;+ InsertComputerCommand : ICommand&lt;/div&gt;&lt;/div&gt;" style="text;strokeColor=none;fillColor=none;align=left;verticalAlign=top;spacingLeft=4;spacingRight=4;overflow=hidden;rotatable=0;points=[[0,0.5],[1,0.5]];portConstraint=eastwest;whiteSpace=wrap;html=1;" vertex="1" parent="E3T1B1passS4D4dBxZ9_-46">
          <mxGeometry y="26" width="350" height="224" as="geometry" />
        </mxCell>
        <mxCell id="E3T1B1passS4D4dBxZ9_-48" value="" style="line;strokeWidth=1;fillColor=none;align=left;verticalAlign=middle;spacingTop=-1;spacingLeft=3;spacingRight=3;rotatable=0;labelPosition=right;points=[];portConstraint=eastwest;strokeColor=inherit;" vertex="1" parent="E3T1B1passS4D4dBxZ9_-46">
          <mxGeometry y="250" width="350" height="8" as="geometry" />
        </mxCell>
        <mxCell id="E3T1B1passS4D4dBxZ9_-49" value="&lt;span class=&quot;hljs-addition&quot;&gt;+ AdminViewModel(name: string, window: Window)&lt;/span&gt;&lt;br&gt;&lt;div&gt;+ RegestrPriem_Click() : void&lt;/div&gt;&lt;div&gt;+ InsertComputer_Click() : void&lt;/div&gt;" style="text;strokeColor=none;fillColor=none;align=left;verticalAlign=top;spacingLeft=4;spacingRight=4;overflow=hidden;rotatable=0;points=[[0,0.5],[1,0.5]];portConstraint=eastwest;whiteSpace=wrap;html=1;" vertex="1" parent="E3T1B1passS4D4dBxZ9_-46">
          <mxGeometry y="258" width="350" height="82" as="geometry" />
        </mxCell>
        <mxCell id="E3T1B1passS4D4dBxZ9_-50" value="ComputerViewModel" style="swimlane;fontStyle=1;align=center;verticalAlign=top;childLayout=stackLayout;horizontal=1;startSize=26;horizontalStack=0;resizeParent=1;resizeParentMax=0;resizeLast=0;collapsible=1;marginBottom=0;whiteSpace=wrap;html=1;" vertex="1" parent="1">
          <mxGeometry x="-170" y="2700" width="350" height="290" as="geometry" />
        </mxCell>
        <mxCell id="E3T1B1passS4D4dBxZ9_-51" value="&lt;div&gt;- _searchProcessor : string&lt;/div&gt;&lt;div&gt;- _searchType : string&lt;/div&gt;&lt;div&gt;- sqlCon : SqlConnection&lt;/div&gt;&lt;div&gt;- _selectedComputer : Computer&lt;br&gt;&lt;div&gt;+ SearchProcessor : string&lt;/div&gt;&lt;div&gt;+ SearchType : string&lt;/div&gt;&lt;div&gt;+ UpdateCommand : ICommand&lt;/div&gt;&lt;div&gt;+ DeleteLastCommand : ICommand&lt;/div&gt;&lt;/div&gt;" style="text;strokeColor=none;fillColor=none;align=left;verticalAlign=top;spacingLeft=4;spacingRight=4;overflow=hidden;rotatable=0;points=[[0,0.5],[1,0.5]];portConstraint=eastwest;whiteSpace=wrap;html=1;" vertex="1" parent="E3T1B1passS4D4dBxZ9_-50">
          <mxGeometry y="26" width="350" height="134" as="geometry" />
        </mxCell>
        <mxCell id="E3T1B1passS4D4dBxZ9_-52" value="" style="line;strokeWidth=1;fillColor=none;align=left;verticalAlign=middle;spacingTop=-1;spacingLeft=3;spacingRight=3;rotatable=0;labelPosition=right;points=[];portConstraint=eastwest;strokeColor=inherit;" vertex="1" parent="E3T1B1passS4D4dBxZ9_-50">
          <mxGeometry y="160" width="350" height="8" as="geometry" />
        </mxCell>
        <mxCell id="E3T1B1passS4D4dBxZ9_-53" value="&lt;span class=&quot;hljs-addition&quot;&gt;+ ComputerViewModel()&lt;/span&gt;&lt;br&gt;&lt;div&gt;+ UpdateComputer() : void&lt;/div&gt;&lt;div&gt;+ DeleteLast_Click() : void&lt;/div&gt;&lt;div&gt;+ Display_Data() : void&lt;/div&gt;&lt;div&gt;+ SearchProcessor_Click() : void&lt;/div&gt;&lt;div&gt;+ SearchType_Click() : void&lt;/div&gt;&lt;div&gt;&lt;br&gt;&lt;/div&gt;" style="text;strokeColor=none;fillColor=none;align=left;verticalAlign=top;spacingLeft=4;spacingRight=4;overflow=hidden;rotatable=0;points=[[0,0.5],[1,0.5]];portConstraint=eastwest;whiteSpace=wrap;html=1;" vertex="1" parent="E3T1B1passS4D4dBxZ9_-50">
          <mxGeometry y="168" width="350" height="122" as="geometry" />
        </mxCell>
        <mxCell id="E3T1B1passS4D4dBxZ9_-54" value="LoginViewModel" style="swimlane;fontStyle=1;align=center;verticalAlign=top;childLayout=stackLayout;horizontal=1;startSize=26;horizontalStack=0;resizeParent=1;resizeParentMax=0;resizeLast=0;collapsible=1;marginBottom=0;whiteSpace=wrap;html=1;" vertex="1" parent="1">
          <mxGeometry x="810" y="1710" width="350" height="380" as="geometry" />
        </mxCell>
        <mxCell id="E3T1B1passS4D4dBxZ9_-55" value="&lt;div&gt;- _username : string&lt;/div&gt;&lt;div&gt;- _usernameForgotPass : string&lt;/div&gt;&lt;div&gt;- _password : string&lt;br&gt;&lt;div&gt;+ Username : string&lt;/div&gt;&lt;div&gt;+ UsernameP : string&lt;/div&gt;&lt;div&gt;+ Password : string&lt;/div&gt;&lt;div&gt;+ LoginCommand : ICommand&lt;/div&gt;&lt;div&gt;+ RegisterCommand : ICommand&lt;/div&gt;&lt;div&gt;+ CloseCommand : ICommand&lt;/div&gt;&lt;div&gt;+ DragCommand : ICommand&lt;/div&gt;&lt;div&gt;+ ForgotPasswordCommand : ICommand&lt;/div&gt;&lt;/div&gt;" style="text;strokeColor=none;fillColor=none;align=left;verticalAlign=top;spacingLeft=4;spacingRight=4;overflow=hidden;rotatable=0;points=[[0,0.5],[1,0.5]];portConstraint=eastwest;whiteSpace=wrap;html=1;" vertex="1" parent="E3T1B1passS4D4dBxZ9_-54">
          <mxGeometry y="26" width="350" height="224" as="geometry" />
        </mxCell>
        <mxCell id="E3T1B1passS4D4dBxZ9_-56" value="" style="line;strokeWidth=1;fillColor=none;align=left;verticalAlign=middle;spacingTop=-1;spacingLeft=3;spacingRight=3;rotatable=0;labelPosition=right;points=[];portConstraint=eastwest;strokeColor=inherit;" vertex="1" parent="E3T1B1passS4D4dBxZ9_-54">
          <mxGeometry y="250" width="350" height="8" as="geometry" />
        </mxCell>
        <mxCell id="E3T1B1passS4D4dBxZ9_-57" value="&lt;div&gt;+ ExecuteLogin(parameter: object) : void&lt;/div&gt;&lt;div&gt;+ ExecuteRegister(parameter: object) : void&lt;/div&gt;&lt;div&gt;+ ExecuteClose(parameter: object) : void&lt;/div&gt;&lt;div&gt;+ ExecuteDrag(parameter: object) : void&lt;/div&gt;&lt;div&gt;+ ExecuteForgotPassword(parameter: object) : void&lt;/div&gt;&lt;div&gt;+ UpdatePasswordForgotStatus(username: string, isForgotten: bool) : void&lt;/div&gt;&lt;div&gt;&lt;br&gt;&lt;/div&gt;" style="text;strokeColor=none;fillColor=none;align=left;verticalAlign=top;spacingLeft=4;spacingRight=4;overflow=hidden;rotatable=0;points=[[0,0.5],[1,0.5]];portConstraint=eastwest;whiteSpace=wrap;html=1;" vertex="1" parent="E3T1B1passS4D4dBxZ9_-54">
          <mxGeometry y="258" width="350" height="122" as="geometry" />
        </mxCell>
        <mxCell id="E3T1B1passS4D4dBxZ9_-58" value="&lt;p style=&quot;margin:0px;margin-top:4px;text-align:center;&quot;&gt;&lt;i&gt;&amp;lt;&amp;lt;Interface&amp;gt;&amp;gt;&lt;/i&gt;&lt;br&gt;INotifyPropertyChanged&lt;/p&gt;&lt;hr size=&quot;1&quot; style=&quot;border-style:solid;&quot;&gt;&lt;p style=&quot;margin:0px;margin-left:4px;&quot;&gt;+ PropertyChanged: event PropertyChangedEventHandler&lt;/p&gt;&lt;hr size=&quot;1&quot; style=&quot;border-style:solid;&quot;&gt;&lt;p style=&quot;margin:0px;margin-left:4px;&quot;&gt;&lt;span class=&quot;hljs-bullet&quot;&gt;+&lt;/span&gt; OnPropertyChanged(propertyName: string): void&lt;/p&gt;" style="verticalAlign=top;align=left;overflow=fill;html=1;whiteSpace=wrap;" vertex="1" parent="1">
          <mxGeometry x="590" y="2220" width="350" height="104" as="geometry" />
        </mxCell>
        <mxCell id="E3T1B1passS4D4dBxZ9_-59" value="ModerViewModel" style="swimlane;fontStyle=1;align=center;verticalAlign=top;childLayout=stackLayout;horizontal=1;startSize=26;horizontalStack=0;resizeParent=1;resizeParentMax=0;resizeLast=0;collapsible=1;marginBottom=0;whiteSpace=wrap;html=1;" vertex="1" parent="1">
          <mxGeometry x="-170" y="1270" width="350" height="380" as="geometry" />
        </mxCell>
        <mxCell id="E3T1B1passS4D4dBxZ9_-60" value="&lt;div&gt;- wind : Window&lt;/div&gt;&lt;div&gt;- _grid : DataGrid&lt;/div&gt;&lt;div&gt;- _insertId : string&lt;/div&gt;&lt;div&gt;- _insertPassword : string&lt;/div&gt;&lt;div&gt;- _insertRole : string&lt;/div&gt;&lt;div&gt;- _searchId : string&lt;/div&gt;&lt;div&gt;- sqlCon : SqlConnection&lt;br&gt;&lt;div&gt;+ dataGridViewUsers : DataGrid&lt;/div&gt;&lt;div&gt;+ txt_insertID : string&lt;/div&gt;&lt;div&gt;+ txt_insertPassword : string&lt;/div&gt;&lt;div&gt;+ txt_insertRole : string&lt;/div&gt;&lt;div&gt;+ txt_SearchID : string&lt;/div&gt;&lt;div&gt;+ AdminClose : ICommand&lt;/div&gt;&lt;div&gt;+ ChangeAcc : ICommand&lt;/div&gt;&lt;/div&gt;" style="text;strokeColor=none;fillColor=none;align=left;verticalAlign=top;spacingLeft=4;spacingRight=4;overflow=hidden;rotatable=0;points=[[0,0.5],[1,0.5]];portConstraint=eastwest;whiteSpace=wrap;html=1;" vertex="1" parent="E3T1B1passS4D4dBxZ9_-59">
          <mxGeometry y="26" width="350" height="224" as="geometry" />
        </mxCell>
        <mxCell id="E3T1B1passS4D4dBxZ9_-61" value="" style="line;strokeWidth=1;fillColor=none;align=left;verticalAlign=middle;spacingTop=-1;spacingLeft=3;spacingRight=3;rotatable=0;labelPosition=right;points=[];portConstraint=eastwest;strokeColor=inherit;" vertex="1" parent="E3T1B1passS4D4dBxZ9_-59">
          <mxGeometry y="250" width="350" height="8" as="geometry" />
        </mxCell>
        <mxCell id="E3T1B1passS4D4dBxZ9_-62" value="&lt;div&gt;+ Display_Data() : void&lt;/div&gt;&lt;div&gt;+ Insert_Click(sender: object) : void&lt;/div&gt;&lt;div&gt;+ Delete_Click(sender: object) : void&lt;/div&gt;&lt;div&gt;+ Update_Click(sender: object) : void&lt;/div&gt;&lt;div&gt;+ SearchLog_Click(sender: object) : void&lt;/div&gt;&lt;div&gt;+ SendAnnounceToUser(userid: string) : void&lt;/div&gt;&lt;div&gt;+ Refuse_Click(sender: object) : void&lt;/div&gt;&lt;div&gt;&lt;br&gt;&lt;/div&gt;" style="text;strokeColor=none;fillColor=none;align=left;verticalAlign=top;spacingLeft=4;spacingRight=4;overflow=hidden;rotatable=0;points=[[0,0.5],[1,0.5]];portConstraint=eastwest;whiteSpace=wrap;html=1;" vertex="1" parent="E3T1B1passS4D4dBxZ9_-59">
          <mxGeometry y="258" width="350" height="122" as="geometry" />
        </mxCell>
        <mxCell id="E3T1B1passS4D4dBxZ9_-63" value="PersonViewModel" style="swimlane;fontStyle=1;align=center;verticalAlign=top;childLayout=stackLayout;horizontal=1;startSize=26;horizontalStack=0;resizeParent=1;resizeParentMax=0;resizeLast=0;collapsible=1;marginBottom=0;whiteSpace=wrap;html=1;" vertex="1" parent="1">
          <mxGeometry x="-170" y="2440" width="350" height="210" as="geometry" />
        </mxCell>
        <mxCell id="E3T1B1passS4D4dBxZ9_-64" value="&lt;div&gt;- _searchLogin : string&lt;/div&gt;&lt;div&gt;- _searchSurname : string&lt;/div&gt;&lt;div&gt;- sqlCon : SqlConnection&lt;br&gt;&lt;div&gt;+ SearchLogin : string&lt;/div&gt;&lt;div&gt;+ SearchSurname : string&lt;/div&gt;&lt;div&gt;+ RefreshCommand : ICommand&lt;/div&gt;&lt;/div&gt;" style="text;strokeColor=none;fillColor=none;align=left;verticalAlign=top;spacingLeft=4;spacingRight=4;overflow=hidden;rotatable=0;points=[[0,0.5],[1,0.5]];portConstraint=eastwest;whiteSpace=wrap;html=1;" vertex="1" parent="E3T1B1passS4D4dBxZ9_-63">
          <mxGeometry y="26" width="350" height="104" as="geometry" />
        </mxCell>
        <mxCell id="E3T1B1passS4D4dBxZ9_-65" value="" style="line;strokeWidth=1;fillColor=none;align=left;verticalAlign=middle;spacingTop=-1;spacingLeft=3;spacingRight=3;rotatable=0;labelPosition=right;points=[];portConstraint=eastwest;strokeColor=inherit;" vertex="1" parent="E3T1B1passS4D4dBxZ9_-63">
          <mxGeometry y="130" width="350" height="8" as="geometry" />
        </mxCell>
        <mxCell id="E3T1B1passS4D4dBxZ9_-66" value="&lt;div&gt;+ Display_Data() : void&lt;/div&gt;&lt;div&gt;+ SearchLog_Click() : void&lt;/div&gt;&lt;div&gt;+ SearchSurname_Click() : void&lt;/div&gt;" style="text;strokeColor=none;fillColor=none;align=left;verticalAlign=top;spacingLeft=4;spacingRight=4;overflow=hidden;rotatable=0;points=[[0,0.5],[1,0.5]];portConstraint=eastwest;whiteSpace=wrap;html=1;" vertex="1" parent="E3T1B1passS4D4dBxZ9_-63">
          <mxGeometry y="138" width="350" height="72" as="geometry" />
        </mxCell>
        <mxCell id="E3T1B1passS4D4dBxZ9_-67" value="RegisterViewModel" style="swimlane;fontStyle=1;align=center;verticalAlign=top;childLayout=stackLayout;horizontal=1;startSize=26;horizontalStack=0;resizeParent=1;resizeParentMax=0;resizeLast=0;collapsible=1;marginBottom=0;whiteSpace=wrap;html=1;" vertex="1" parent="1">
          <mxGeometry x="1304" y="1636" width="350" height="250" as="geometry" />
        </mxCell>
        <mxCell id="E3T1B1passS4D4dBxZ9_-68" value="&lt;div&gt;- _login : string&lt;/div&gt;&lt;div&gt;- _password : string&lt;/div&gt;&lt;div&gt;- _name : string&lt;/div&gt;&lt;div&gt;- _lastName : string&lt;/div&gt;&lt;div&gt;- sqlCon : SqlConnection&lt;br&gt;&lt;div&gt;+ Login : string&lt;/div&gt;&lt;div&gt;+ Password : string&lt;/div&gt;&lt;div&gt;+ RegisterCommand : ICommand&lt;/div&gt;&lt;/div&gt;" style="text;strokeColor=none;fillColor=none;align=left;verticalAlign=top;spacingLeft=4;spacingRight=4;overflow=hidden;rotatable=0;points=[[0,0.5],[1,0.5]];portConstraint=eastwest;whiteSpace=wrap;html=1;" vertex="1" parent="E3T1B1passS4D4dBxZ9_-67">
          <mxGeometry y="26" width="350" height="144" as="geometry" />
        </mxCell>
        <mxCell id="E3T1B1passS4D4dBxZ9_-69" value="" style="line;strokeWidth=1;fillColor=none;align=left;verticalAlign=middle;spacingTop=-1;spacingLeft=3;spacingRight=3;rotatable=0;labelPosition=right;points=[];portConstraint=eastwest;strokeColor=inherit;" vertex="1" parent="E3T1B1passS4D4dBxZ9_-67">
          <mxGeometry y="170" width="350" height="8" as="geometry" />
        </mxCell>
        <mxCell id="E3T1B1passS4D4dBxZ9_-70" value="&lt;div&gt;+ ExecuteRegister() : void&lt;/div&gt;&lt;div&gt;+ ExecuteClose() : void&lt;/div&gt;&lt;div&gt;+ ExecuteGoToLogin() : void&lt;/div&gt;" style="text;strokeColor=none;fillColor=none;align=left;verticalAlign=top;spacingLeft=4;spacingRight=4;overflow=hidden;rotatable=0;points=[[0,0.5],[1,0.5]];portConstraint=eastwest;whiteSpace=wrap;html=1;" vertex="1" parent="E3T1B1passS4D4dBxZ9_-67">
          <mxGeometry y="178" width="350" height="72" as="geometry" />
        </mxCell>
        <mxCell id="E3T1B1passS4D4dBxZ9_-71" value="ServiceViewModel" style="swimlane;fontStyle=1;align=center;verticalAlign=top;childLayout=stackLayout;horizontal=1;startSize=26;horizontalStack=0;resizeParent=1;resizeParentMax=0;resizeLast=0;collapsible=1;marginBottom=0;whiteSpace=wrap;html=1;" vertex="1" parent="1">
          <mxGeometry x="-170" y="2090" width="350" height="290" as="geometry" />
        </mxCell>
        <mxCell id="E3T1B1passS4D4dBxZ9_-72" value="&lt;div&gt;- _searchProcName : string&lt;/div&gt;&lt;div&gt;- _searchPrice : string&lt;/div&gt;&lt;div&gt;- sqlCon : SqlConnection&lt;br&gt;&lt;div&gt;+ SearchProcName : string&lt;/div&gt;&lt;div&gt;+ SearchPrice : string&lt;/div&gt;&lt;div&gt;+ UpdateCommand : ICommand&lt;/div&gt;&lt;div&gt;+ DeleteLastCommand : ICommand&lt;/div&gt;&lt;/div&gt;" style="text;strokeColor=none;fillColor=none;align=left;verticalAlign=top;spacingLeft=4;spacingRight=4;overflow=hidden;rotatable=0;points=[[0,0.5],[1,0.5]];portConstraint=eastwest;whiteSpace=wrap;html=1;" vertex="1" parent="E3T1B1passS4D4dBxZ9_-71">
          <mxGeometry y="26" width="350" height="134" as="geometry" />
        </mxCell>
        <mxCell id="E3T1B1passS4D4dBxZ9_-73" value="" style="line;strokeWidth=1;fillColor=none;align=left;verticalAlign=middle;spacingTop=-1;spacingLeft=3;spacingRight=3;rotatable=0;labelPosition=right;points=[];portConstraint=eastwest;strokeColor=inherit;" vertex="1" parent="E3T1B1passS4D4dBxZ9_-71">
          <mxGeometry y="160" width="350" height="8" as="geometry" />
        </mxCell>
        <mxCell id="E3T1B1passS4D4dBxZ9_-74" value="&lt;div&gt;+ UpdateProc() : void&lt;/div&gt;&lt;div&gt;+ DeleteLast_Click() : void&lt;/div&gt;&lt;div&gt;+ Display_Data() : void&lt;/div&gt;&lt;div&gt;+ SearchProcedure_Click() : void&lt;/div&gt;&lt;div&gt;+ SearchPrice_Click() : void&lt;/div&gt;" style="text;strokeColor=none;fillColor=none;align=left;verticalAlign=top;spacingLeft=4;spacingRight=4;overflow=hidden;rotatable=0;points=[[0,0.5],[1,0.5]];portConstraint=eastwest;whiteSpace=wrap;html=1;" vertex="1" parent="E3T1B1passS4D4dBxZ9_-71">
          <mxGeometry y="168" width="350" height="122" as="geometry" />
        </mxCell>
        <mxCell id="E3T1B1passS4D4dBxZ9_-75" value="TimeTableViewModel" style="swimlane;fontStyle=1;align=center;verticalAlign=top;childLayout=stackLayout;horizontal=1;startSize=26;horizontalStack=0;resizeParent=1;resizeParentMax=0;resizeLast=0;collapsible=1;marginBottom=0;whiteSpace=wrap;html=1;" vertex="1" parent="1">
          <mxGeometry x="-170" y="1690" width="350" height="360" as="geometry" />
        </mxCell>
        <mxCell id="E3T1B1passS4D4dBxZ9_-76" value="&lt;div&gt;- _fullname : string&lt;/div&gt;&lt;div&gt;- _computer : string&lt;/div&gt;&lt;div&gt;- _procedure : string&lt;/div&gt;&lt;div&gt;- _date : DateTime&lt;/div&gt;&lt;div&gt;- _startTime : TimeSpan&lt;/div&gt;&lt;div&gt;- _endTime : TimeSpan&lt;/div&gt;&lt;div&gt;- connection : SqlConnection&lt;br&gt;&lt;div&gt;+ UserFio : string&lt;/div&gt;&lt;div&gt;+ Computer : string&lt;/div&gt;&lt;div&gt;+ Procedure : string&lt;/div&gt;&lt;div&gt;+ Date : DateTime&lt;/div&gt;&lt;div&gt;+ StartTime : TimeSpan&lt;/div&gt;&lt;div&gt;+ EndTime : TimeSpan&lt;/div&gt;&lt;/div&gt;" style="text;strokeColor=none;fillColor=none;align=left;verticalAlign=top;spacingLeft=4;spacingRight=4;overflow=hidden;rotatable=0;points=[[0,0.5],[1,0.5]];portConstraint=eastwest;whiteSpace=wrap;html=1;" vertex="1" parent="E3T1B1passS4D4dBxZ9_-75">
          <mxGeometry y="26" width="350" height="214" as="geometry" />
        </mxCell>
        <mxCell id="E3T1B1passS4D4dBxZ9_-77" value="" style="line;strokeWidth=1;fillColor=none;align=left;verticalAlign=middle;spacingTop=-1;spacingLeft=3;spacingRight=3;rotatable=0;labelPosition=right;points=[];portConstraint=eastwest;strokeColor=inherit;" vertex="1" parent="E3T1B1passS4D4dBxZ9_-75">
          <mxGeometry y="240" width="350" height="8" as="geometry" />
        </mxCell>
        <mxCell id="E3T1B1passS4D4dBxZ9_-78" value="&lt;div&gt;+ StartWorking() : void&lt;/div&gt;&lt;div&gt;+ IsTimeSlotOccupied(startTime: TimeSpan, endTime: TimeSpan) : bool&lt;/div&gt;&lt;div&gt;+ AddReservation(user: string, computer: string, procedure: string, date: DateTime) : void&lt;/div&gt;&lt;div&gt;+ GetScheduleForDay(date: DateTime) : List&amp;lt;string&amp;gt;&lt;/div&gt;" style="text;strokeColor=none;fillColor=none;align=left;verticalAlign=top;spacingLeft=4;spacingRight=4;overflow=hidden;rotatable=0;points=[[0,0.5],[1,0.5]];portConstraint=eastwest;whiteSpace=wrap;html=1;" vertex="1" parent="E3T1B1passS4D4dBxZ9_-75">
          <mxGeometry y="248" width="350" height="112" as="geometry" />
        </mxCell>
        <mxCell id="E3T1B1passS4D4dBxZ9_-79" value="UserViewModel" style="swimlane;fontStyle=1;align=center;verticalAlign=top;childLayout=stackLayout;horizontal=1;startSize=26;horizontalStack=0;resizeParent=1;resizeParentMax=0;resizeLast=0;collapsible=1;marginBottom=0;whiteSpace=wrap;html=1;" vertex="1" parent="1">
          <mxGeometry x="1304" y="1990" width="350" height="340" as="geometry">
            <mxRectangle x="1540" y="1753" width="120" height="30" as="alternateBounds" />
          </mxGeometry>
        </mxCell>
        <mxCell id="E3T1B1passS4D4dBxZ9_-80" value="&lt;div&gt;- _username : string&lt;/div&gt;&lt;div&gt;- _computer : string&lt;/div&gt;&lt;div&gt;- _procedure : string&lt;/div&gt;&lt;div&gt;- _email : string&lt;/div&gt;&lt;div&gt;- _phone : string&lt;/div&gt;&lt;div&gt;- connection : SqlConnection&lt;br&gt;&lt;div&gt;+ regUserLogin : string&lt;/div&gt;&lt;div&gt;+ Computer : string&lt;/div&gt;&lt;div&gt;+ Procedure : string&lt;/div&gt;&lt;div&gt;+ Email : string&lt;/div&gt;&lt;div&gt;+ Phone : string&lt;/div&gt;&lt;/div&gt;" style="text;strokeColor=none;fillColor=none;align=left;verticalAlign=top;spacingLeft=4;spacingRight=4;overflow=hidden;rotatable=0;points=[[0,0.5],[1,0.5]];portConstraint=eastwest;whiteSpace=wrap;html=1;" vertex="1" parent="E3T1B1passS4D4dBxZ9_-79">
          <mxGeometry y="26" width="350" height="184" as="geometry" />
        </mxCell>
        <mxCell id="E3T1B1passS4D4dBxZ9_-81" value="" style="line;strokeWidth=1;fillColor=none;align=left;verticalAlign=middle;spacingTop=-1;spacingLeft=3;spacingRight=3;rotatable=0;labelPosition=right;points=[];portConstraint=eastwest;strokeColor=inherit;" vertex="1" parent="E3T1B1passS4D4dBxZ9_-79">
          <mxGeometry y="210" width="350" height="8" as="geometry" />
        </mxCell>
        <mxCell id="E3T1B1passS4D4dBxZ9_-82" value="&lt;div&gt;+ StartWorking() : void&lt;/div&gt;&lt;div&gt;+ ExecuteAllPcWind() : void&lt;/div&gt;&lt;div&gt;+ ExecuteAllProceWind() : void&lt;/div&gt;&lt;div&gt;+ ReserveComputer(computer: string, procedure: string, date: DateTime) : void&lt;/div&gt;&lt;div&gt;+ CancelReservation(reservationId: int) : void&lt;/div&gt;&lt;div&gt;+ GetAvailableComputers(date: DateTime) : List&amp;lt;string&amp;gt;&lt;/div&gt;&lt;div&gt;&lt;br&gt;&lt;/div&gt;" style="text;strokeColor=none;fillColor=none;align=left;verticalAlign=top;spacingLeft=4;spacingRight=4;overflow=hidden;rotatable=0;points=[[0,0.5],[1,0.5]];portConstraint=eastwest;whiteSpace=wrap;html=1;" vertex="1" parent="E3T1B1passS4D4dBxZ9_-79">
          <mxGeometry y="218" width="350" height="122" as="geometry" />
        </mxCell>
        <mxCell id="E3T1B1passS4D4dBxZ9_-85" value="" style="endArrow=open;endFill=1;endSize=12;html=1;rounded=0;exitX=0;exitY=0.5;exitDx=0;exitDy=0;entryX=1;entryY=0.5;entryDx=0;entryDy=0;" edge="1" parent="1" source="E3T1B1passS4D4dBxZ9_-55" target="E3T1B1passS4D4dBxZ9_-47">
          <mxGeometry width="160" relative="1" as="geometry">
            <mxPoint x="680" y="2130" as="sourcePoint" />
            <mxPoint x="840" y="2130" as="targetPoint" />
          </mxGeometry>
        </mxCell>
        <mxCell id="E3T1B1passS4D4dBxZ9_-86" value="" style="endArrow=open;endFill=1;endSize=12;html=1;rounded=0;exitX=0;exitY=0.5;exitDx=0;exitDy=0;entryX=1;entryY=0.5;entryDx=0;entryDy=0;edgeStyle=orthogonalEdgeStyle;" edge="1" parent="1" source="E3T1B1passS4D4dBxZ9_-47" target="E3T1B1passS4D4dBxZ9_-60">
          <mxGeometry width="160" relative="1" as="geometry">
            <mxPoint x="340" y="1740" as="sourcePoint" />
            <mxPoint x="220" y="1740" as="targetPoint" />
            <Array as="points">
              <mxPoint x="320" y="1848" />
              <mxPoint x="320" y="1408" />
            </Array>
          </mxGeometry>
        </mxCell>
        <mxCell id="E3T1B1passS4D4dBxZ9_-87" value="" style="endArrow=open;endFill=1;endSize=12;html=1;rounded=0;entryX=0.994;entryY=0.617;entryDx=0;entryDy=0;edgeStyle=orthogonalEdgeStyle;exitX=0;exitY=0.5;exitDx=0;exitDy=0;entryPerimeter=0;" edge="1" parent="1" source="E3T1B1passS4D4dBxZ9_-47" target="E3T1B1passS4D4dBxZ9_-76">
          <mxGeometry width="160" relative="1" as="geometry">
            <mxPoint x="340" y="1850" as="sourcePoint" />
            <mxPoint x="190" y="1418" as="targetPoint" />
          </mxGeometry>
        </mxCell>
        <mxCell id="E3T1B1passS4D4dBxZ9_-88" value="" style="endArrow=open;endFill=1;endSize=12;html=1;rounded=0;entryX=1;entryY=0.5;entryDx=0;entryDy=0;edgeStyle=orthogonalEdgeStyle;exitX=0;exitY=0.5;exitDx=0;exitDy=0;" edge="1" parent="1" source="E3T1B1passS4D4dBxZ9_-47" target="E3T1B1passS4D4dBxZ9_-72">
          <mxGeometry width="160" relative="1" as="geometry">
            <mxPoint x="320" y="1858" as="sourcePoint" />
            <mxPoint x="150" y="2183" as="targetPoint" />
            <Array as="points">
              <mxPoint x="321" y="1848" />
              <mxPoint x="321" y="2183" />
            </Array>
          </mxGeometry>
        </mxCell>
        <mxCell id="E3T1B1passS4D4dBxZ9_-89" value="" style="endArrow=open;endFill=1;endSize=12;html=1;rounded=0;entryX=1;entryY=0.5;entryDx=0;entryDy=0;edgeStyle=orthogonalEdgeStyle;exitX=0;exitY=0.5;exitDx=0;exitDy=0;" edge="1" parent="1" source="E3T1B1passS4D4dBxZ9_-47" target="E3T1B1passS4D4dBxZ9_-64">
          <mxGeometry width="160" relative="1" as="geometry">
            <mxPoint x="350" y="1858" as="sourcePoint" />
            <mxPoint x="190" y="2193" as="targetPoint" />
            <Array as="points">
              <mxPoint x="320" y="1848" />
              <mxPoint x="320" y="2518" />
            </Array>
          </mxGeometry>
        </mxCell>
        <mxCell id="E3T1B1passS4D4dBxZ9_-90" value="" style="endArrow=open;endFill=1;endSize=12;html=1;rounded=0;entryX=1;entryY=0.5;entryDx=0;entryDy=0;edgeStyle=orthogonalEdgeStyle;exitX=0;exitY=0.5;exitDx=0;exitDy=0;" edge="1" parent="1" source="E3T1B1passS4D4dBxZ9_-47" target="E3T1B1passS4D4dBxZ9_-51">
          <mxGeometry width="160" relative="1" as="geometry">
            <mxPoint x="350" y="1858" as="sourcePoint" />
            <mxPoint x="190" y="2528" as="targetPoint" />
            <Array as="points">
              <mxPoint x="320" y="1848" />
              <mxPoint x="320" y="2793" />
            </Array>
          </mxGeometry>
        </mxCell>
        <mxCell id="E3T1B1passS4D4dBxZ9_-93" value="" style="endArrow=open;endFill=1;endSize=12;html=1;rounded=0;exitX=0;exitY=0.5;exitDx=0;exitDy=0;entryX=1;entryY=0.5;entryDx=0;entryDy=0;edgeStyle=orthogonalEdgeStyle;" edge="1" parent="1" source="E3T1B1passS4D4dBxZ9_-68" target="E3T1B1passS4D4dBxZ9_-55">
          <mxGeometry width="160" relative="1" as="geometry">
            <mxPoint x="1298" y="1750" as="sourcePoint" />
            <mxPoint x="1184" y="1886" as="targetPoint" />
          </mxGeometry>
        </mxCell>
        <mxCell id="E3T1B1passS4D4dBxZ9_-94" value="" style="endArrow=diamondThin;endFill=0;endSize=24;html=1;rounded=0;exitX=0.5;exitY=1;exitDx=0;exitDy=0;entryX=0.5;entryY=0;entryDx=0;entryDy=0;" edge="1" parent="1" source="E3T1B1passS4D4dBxZ9_-2" target="E3T1B1passS4D4dBxZ9_-54">
          <mxGeometry width="160" relative="1" as="geometry">
            <mxPoint x="1120" y="1650" as="sourcePoint" />
            <mxPoint x="1280" y="1650" as="targetPoint" />
          </mxGeometry>
        </mxCell>
        <mxCell id="E3T1B1passS4D4dBxZ9_-95" value="" style="endArrow=diamondThin;endFill=0;endSize=24;html=1;rounded=0;exitX=0.989;exitY=0.995;exitDx=0;exitDy=0;entryX=0.5;entryY=0;entryDx=0;entryDy=0;exitPerimeter=0;edgeStyle=orthogonalEdgeStyle;" edge="1" parent="1" source="E3T1B1passS4D4dBxZ9_-3" target="E3T1B1passS4D4dBxZ9_-67">
          <mxGeometry width="160" relative="1" as="geometry">
            <mxPoint x="1140" y="1636" as="sourcePoint" />
            <mxPoint x="1140" y="1710" as="targetPoint" />
            <Array as="points">
              <mxPoint x="1063" y="1600" />
              <mxPoint x="1479" y="1600" />
            </Array>
          </mxGeometry>
        </mxCell>
        <mxCell id="E3T1B1passS4D4dBxZ9_-96" value="" style="endArrow=open;endFill=1;endSize=12;html=1;rounded=0;exitX=0.995;exitY=0.756;exitDx=0;exitDy=0;entryX=0;entryY=0.5;entryDx=0;entryDy=0;exitPerimeter=0;edgeStyle=orthogonalEdgeStyle;" edge="1" parent="1" source="E3T1B1passS4D4dBxZ9_-55" target="E3T1B1passS4D4dBxZ9_-80">
          <mxGeometry width="160" relative="1" as="geometry">
            <mxPoint x="1304" y="1970" as="sourcePoint" />
            <mxPoint x="1184" y="1970" as="targetPoint" />
          </mxGeometry>
        </mxCell>
        <mxCell id="E3T1B1passS4D4dBxZ9_-97" value="" style="endArrow=block;dashed=1;endFill=0;endSize=12;html=1;rounded=0;exitX=0.491;exitY=1;exitDx=0;exitDy=0;exitPerimeter=0;entryX=0.5;entryY=0;entryDx=0;entryDy=0;edgeStyle=orthogonalEdgeStyle;" edge="1" parent="1" source="E3T1B1passS4D4dBxZ9_-57" target="E3T1B1passS4D4dBxZ9_-58">
          <mxGeometry width="160" relative="1" as="geometry">
            <mxPoint x="827" y="2140" as="sourcePoint" />
            <mxPoint x="987" y="2140" as="targetPoint" />
          </mxGeometry>
        </mxCell>
        <mxCell id="E3T1B1passS4D4dBxZ9_-98" value="" style="endArrow=block;dashed=1;endFill=0;endSize=12;html=1;rounded=0;exitX=0.48;exitY=1.037;exitDx=0;exitDy=0;exitPerimeter=0;entryX=0.326;entryY=-0.019;entryDx=0;entryDy=0;edgeStyle=orthogonalEdgeStyle;entryPerimeter=0;" edge="1" parent="1" source="E3T1B1passS4D4dBxZ9_-49" target="E3T1B1passS4D4dBxZ9_-58">
          <mxGeometry width="160" relative="1" as="geometry">
            <mxPoint x="992" y="2100" as="sourcePoint" />
            <mxPoint x="775" y="2230" as="targetPoint" />
            <Array as="points">
              <mxPoint x="508" y="2090" />
              <mxPoint x="704" y="2090" />
            </Array>
          </mxGeometry>
        </mxCell>
        <mxCell id="E3T1B1passS4D4dBxZ9_-99" value="" style="endArrow=block;dashed=1;endFill=0;endSize=12;html=1;rounded=0;entryX=0.75;entryY=0;entryDx=0;entryDy=0;edgeStyle=orthogonalEdgeStyle;exitX=-0.01;exitY=0.761;exitDx=0;exitDy=0;exitPerimeter=0;" edge="1" parent="1" source="E3T1B1passS4D4dBxZ9_-80" target="E3T1B1passS4D4dBxZ9_-58">
          <mxGeometry width="160" relative="1" as="geometry">
            <mxPoint x="950" y="2220" as="sourcePoint" />
            <mxPoint x="1416" y="2525" as="targetPoint" />
            <Array as="points">
              <mxPoint x="1220" y="2156" />
              <mxPoint x="1220" y="2190" />
              <mxPoint x="852" y="2190" />
            </Array>
          </mxGeometry>
        </mxCell>
        <mxCell id="E3T1B1passS4D4dBxZ9_-100" value="" style="endArrow=block;dashed=1;endFill=0;endSize=12;html=1;rounded=0;exitX=1;exitY=0.5;exitDx=0;exitDy=0;entryX=1;entryY=0.25;entryDx=0;entryDy=0;edgeStyle=orthogonalEdgeStyle;" edge="1" parent="1" source="E3T1B1passS4D4dBxZ9_-68" target="E3T1B1passS4D4dBxZ9_-58">
          <mxGeometry width="160" relative="1" as="geometry">
            <mxPoint x="2007" y="1830" as="sourcePoint" />
            <mxPoint x="1790" y="1960" as="targetPoint" />
            <Array as="points">
              <mxPoint x="1690" y="1734" />
              <mxPoint x="1690" y="2360" />
              <mxPoint x="1000" y="2360" />
              <mxPoint x="1000" y="2246" />
            </Array>
          </mxGeometry>
        </mxCell>
        <mxCell id="E3T1B1passS4D4dBxZ9_-101" value="" style="endArrow=block;dashed=1;endFill=0;endSize=12;html=1;rounded=0;exitX=0;exitY=0.5;exitDx=0;exitDy=0;entryX=-0.001;entryY=0.886;entryDx=0;entryDy=0;edgeStyle=orthogonalEdgeStyle;entryPerimeter=0;" edge="1" parent="1" source="E3T1B1passS4D4dBxZ9_-60" target="E3T1B1passS4D4dBxZ9_-58">
          <mxGeometry width="160" relative="1" as="geometry">
            <mxPoint x="-490" y="1600" as="sourcePoint" />
            <mxPoint x="-294" y="1765" as="targetPoint" />
            <Array as="points">
              <mxPoint x="-510" y="1408" />
              <mxPoint x="-510" y="3210" />
              <mxPoint x="470" y="3210" />
              <mxPoint x="470" y="2312" />
            </Array>
          </mxGeometry>
        </mxCell>
        <mxCell id="E3T1B1passS4D4dBxZ9_-102" value="" style="endArrow=block;dashed=1;endFill=0;endSize=12;html=1;rounded=0;exitX=0;exitY=0.5;exitDx=0;exitDy=0;entryX=0;entryY=0.673;entryDx=0;entryDy=0;edgeStyle=orthogonalEdgeStyle;entryPerimeter=0;" edge="1" parent="1" source="E3T1B1passS4D4dBxZ9_-76" target="E3T1B1passS4D4dBxZ9_-58">
          <mxGeometry width="160" relative="1" as="geometry">
            <mxPoint x="-160" y="1418" as="sourcePoint" />
            <mxPoint x="600" y="2322" as="targetPoint" />
            <Array as="points">
              <mxPoint x="-500" y="1823" />
              <mxPoint x="-500" y="3200" />
              <mxPoint x="460" y="3200" />
              <mxPoint x="460" y="2290" />
            </Array>
          </mxGeometry>
        </mxCell>
        <mxCell id="E3T1B1passS4D4dBxZ9_-103" value="" style="endArrow=block;dashed=1;endFill=0;endSize=12;html=1;rounded=0;exitX=0;exitY=0.5;exitDx=0;exitDy=0;entryX=0;entryY=0.5;entryDx=0;entryDy=0;edgeStyle=orthogonalEdgeStyle;" edge="1" parent="1" source="E3T1B1passS4D4dBxZ9_-72" target="E3T1B1passS4D4dBxZ9_-58">
          <mxGeometry width="160" relative="1" as="geometry">
            <mxPoint x="-160" y="1833" as="sourcePoint" />
            <mxPoint x="600" y="2300" as="targetPoint" />
            <Array as="points">
              <mxPoint x="-490" y="2183" />
              <mxPoint x="-490" y="3190" />
              <mxPoint x="450" y="3190" />
              <mxPoint x="450" y="2272" />
            </Array>
          </mxGeometry>
        </mxCell>
        <mxCell id="E3T1B1passS4D4dBxZ9_-104" value="" style="endArrow=block;dashed=1;endFill=0;endSize=12;html=1;rounded=0;exitX=0;exitY=0.5;exitDx=0;exitDy=0;entryX=0;entryY=0.25;entryDx=0;entryDy=0;edgeStyle=orthogonalEdgeStyle;" edge="1" parent="1" source="E3T1B1passS4D4dBxZ9_-64" target="E3T1B1passS4D4dBxZ9_-58">
          <mxGeometry width="160" relative="1" as="geometry">
            <mxPoint x="-160" y="2193" as="sourcePoint" />
            <mxPoint x="600" y="2282" as="targetPoint" />
            <Array as="points">
              <mxPoint x="-480" y="2518" />
              <mxPoint x="-480" y="3180" />
              <mxPoint x="440" y="3180" />
              <mxPoint x="440" y="2246" />
            </Array>
          </mxGeometry>
        </mxCell>
        <mxCell id="E3T1B1passS4D4dBxZ9_-105" value="" style="endArrow=block;dashed=1;endFill=0;endSize=12;html=1;rounded=0;exitX=0;exitY=0.5;exitDx=0;exitDy=0;entryX=0.001;entryY=0.059;entryDx=0;entryDy=0;edgeStyle=orthogonalEdgeStyle;entryPerimeter=0;" edge="1" parent="1" source="E3T1B1passS4D4dBxZ9_-51" target="E3T1B1passS4D4dBxZ9_-58">
          <mxGeometry width="160" relative="1" as="geometry">
            <mxPoint x="-160" y="2528" as="sourcePoint" />
            <mxPoint x="600" y="2256" as="targetPoint" />
            <Array as="points">
              <mxPoint x="-170" y="2790" />
              <mxPoint x="-470" y="2790" />
              <mxPoint x="-470" y="3170" />
              <mxPoint x="430" y="3170" />
              <mxPoint x="430" y="2226" />
            </Array>
          </mxGeometry>
        </mxCell>
        <mxCell id="E3T1B1passS4D4dBxZ9_-106" value="" style="endArrow=diamondThin;endFill=0;endSize=24;html=1;rounded=0;exitX=0.5;exitY=0;exitDx=0;exitDy=0;entryX=0.5;entryY=0;entryDx=0;entryDy=0;edgeStyle=orthogonalEdgeStyle;" edge="1" parent="1" source="E3T1B1passS4D4dBxZ9_-2" target="E3T1B1passS4D4dBxZ9_-59">
          <mxGeometry width="160" relative="1" as="geometry">
            <mxPoint x="760" y="1562" as="sourcePoint" />
            <mxPoint x="760" y="1636" as="targetPoint" />
            <Array as="points">
              <mxPoint x="985" y="1240" />
              <mxPoint x="5" y="1240" />
            </Array>
          </mxGeometry>
        </mxCell>
        <mxCell id="E3T1B1passS4D4dBxZ9_-107" value="" style="endArrow=diamondThin;endFill=0;endSize=24;html=1;rounded=0;exitX=1;exitY=0.5;exitDx=0;exitDy=0;entryX=0.482;entryY=0.989;entryDx=0;entryDy=0;entryPerimeter=0;edgeStyle=orthogonalEdgeStyle;" edge="1" parent="1" source="E3T1B1passS4D4dBxZ9_-8" target="E3T1B1passS4D4dBxZ9_-82">
          <mxGeometry width="160" relative="1" as="geometry">
            <mxPoint x="1210" y="2550" as="sourcePoint" />
            <mxPoint x="1210" y="2624" as="targetPoint" />
            <Array as="points">
              <mxPoint x="1473" y="2469" />
            </Array>
          </mxGeometry>
        </mxCell>
        <mxCell id="E3T1B1passS4D4dBxZ9_-108" value="" style="endArrow=diamondThin;endFill=0;endSize=24;html=1;rounded=0;exitX=1;exitY=0.5;exitDx=0;exitDy=0;entryX=0.772;entryY=1.013;entryDx=0;entryDy=0;entryPerimeter=0;edgeStyle=orthogonalEdgeStyle;" edge="1" parent="1" source="E3T1B1passS4D4dBxZ9_-18" target="E3T1B1passS4D4dBxZ9_-82">
          <mxGeometry width="160" relative="1" as="geometry">
            <mxPoint x="1110" y="2608" as="sourcePoint" />
            <mxPoint x="1473" y="2468" as="targetPoint" />
            <Array as="points">
              <mxPoint x="920" y="2469" />
              <mxPoint x="920" y="2680" />
              <mxPoint x="1574" y="2680" />
            </Array>
          </mxGeometry>
        </mxCell>
        <mxCell id="E3T1B1passS4D4dBxZ9_-109" value="" style="endArrow=diamondThin;endFill=0;endSize=24;html=1;rounded=0;exitX=1;exitY=0.5;exitDx=0;exitDy=0;entryX=1;entryY=0.5;entryDx=0;entryDy=0;edgeStyle=orthogonalEdgeStyle;" edge="1" parent="1" source="E3T1B1passS4D4dBxZ9_-26" target="E3T1B1passS4D4dBxZ9_-80">
          <mxGeometry width="160" relative="1" as="geometry">
            <mxPoint x="790" y="2637" as="sourcePoint" />
            <mxPoint x="1474" y="2500" as="targetPoint" />
            <Array as="points">
              <mxPoint x="690" y="2469" />
              <mxPoint x="690" y="2710" />
              <mxPoint x="1760" y="2710" />
              <mxPoint x="1760" y="2108" />
            </Array>
          </mxGeometry>
        </mxCell>
        <mxCell id="E3T1B1passS4D4dBxZ9_-110" value="" style="endArrow=diamondThin;endFill=0;endSize=24;html=1;rounded=0;exitX=0.5;exitY=0;exitDx=0;exitDy=0;entryX=1;entryY=0.5;entryDx=0;entryDy=0;edgeStyle=orthogonalEdgeStyle;" edge="1" parent="1" source="E3T1B1passS4D4dBxZ9_-17" target="E3T1B1passS4D4dBxZ9_-74">
          <mxGeometry width="160" relative="1" as="geometry">
            <mxPoint x="740" y="2350" as="sourcePoint" />
            <mxPoint x="740" y="2424" as="targetPoint" />
            <Array as="points">
              <mxPoint x="810" y="2370" />
              <mxPoint x="230" y="2370" />
              <mxPoint x="230" y="2319" />
            </Array>
          </mxGeometry>
        </mxCell>
        <mxCell id="E3T1B1passS4D4dBxZ9_-111" value="" style="endArrow=diamondThin;endFill=0;endSize=24;html=1;rounded=0;exitX=0.5;exitY=1;exitDx=0;exitDy=0;entryX=1;entryY=0.5;entryDx=0;entryDy=0;edgeStyle=orthogonalEdgeStyle;" edge="1" parent="1" source="E3T1B1passS4D4dBxZ9_-7" target="E3T1B1passS4D4dBxZ9_-53">
          <mxGeometry width="160" relative="1" as="geometry">
            <mxPoint x="1160" y="2923" as="sourcePoint" />
            <mxPoint x="530" y="2812" as="targetPoint" />
            <Array as="points">
              <mxPoint x="1030" y="2929" />
            </Array>
          </mxGeometry>
        </mxCell>
        <mxCell id="E3T1B1passS4D4dBxZ9_-112" value="" style="endArrow=diamondThin;endFill=0;endSize=24;html=1;rounded=0;exitX=0.5;exitY=1;exitDx=0;exitDy=0;entryX=1;entryY=0.5;entryDx=0;entryDy=0;edgeStyle=orthogonalEdgeStyle;" edge="1" parent="1" source="E3T1B1passS4D4dBxZ9_-25" target="E3T1B1passS4D4dBxZ9_-78">
          <mxGeometry width="160" relative="1" as="geometry">
            <mxPoint x="420" y="2561" as="sourcePoint" />
            <mxPoint x="1404" y="2200" as="targetPoint" />
            <Array as="points">
              <mxPoint x="590" y="2561" />
              <mxPoint x="440" y="2561" />
              <mxPoint x="280" y="2560" />
              <mxPoint x="280" y="1994" />
            </Array>
          </mxGeometry>
        </mxCell>
        <mxCell id="E3T1B1passS4D4dBxZ9_-113" value="" style="endArrow=diamondThin;endFill=0;endSize=24;html=1;rounded=0;exitX=0.471;exitY=1.232;exitDx=0;exitDy=0;entryX=1.003;entryY=0.733;entryDx=0;entryDy=0;edgeStyle=orthogonalEdgeStyle;exitPerimeter=0;entryPerimeter=0;" edge="1" parent="1" source="E3T1B1passS4D4dBxZ9_-20" target="E3T1B1passS4D4dBxZ9_-78">
          <mxGeometry width="160" relative="1" as="geometry">
            <mxPoint x="790" y="2648" as="sourcePoint" />
            <mxPoint x="380" y="2100" as="targetPoint" />
            <Array as="points">
              <mxPoint x="805" y="2667" />
              <mxPoint x="300" y="2667" />
              <mxPoint x="300" y="2020" />
            </Array>
          </mxGeometry>
        </mxCell>
        <mxCell id="E3T1B1passS4D4dBxZ9_-114" value="" style="endArrow=diamondThin;endFill=0;endSize=24;html=1;rounded=0;exitX=0.257;exitY=0.804;exitDx=0;exitDy=0;entryX=0.995;entryY=0.899;entryDx=0;entryDy=0;edgeStyle=orthogonalEdgeStyle;exitPerimeter=0;entryPerimeter=0;" edge="1" parent="1" source="E3T1B1passS4D4dBxZ9_-10" target="E3T1B1passS4D4dBxZ9_-78">
          <mxGeometry width="160" relative="1" as="geometry">
            <mxPoint x="844" y="2716" as="sourcePoint" />
            <mxPoint x="220" y="2140" as="targetPoint" />
            <Array as="points">
              <mxPoint x="991" y="2770" />
              <mxPoint x="240" y="2770" />
              <mxPoint x="240" y="2039" />
            </Array>
          </mxGeometry>
        </mxCell>
        <mxCell id="E3T1B1passS4D4dBxZ9_-115" value="" style="endArrow=diamondThin;endFill=0;endSize=24;html=1;rounded=0;exitX=0.5;exitY=0;exitDx=0;exitDy=0;entryX=0.009;entryY=0.092;entryDx=0;entryDy=0;edgeStyle=orthogonalEdgeStyle;entryPerimeter=0;" edge="1" parent="1" target="E3T1B1passS4D4dBxZ9_-63">
          <mxGeometry width="160" relative="1" as="geometry">
            <mxPoint x="1030" y="1550" as="sourcePoint" />
            <mxPoint x="50" y="1270" as="targetPoint" />
            <Array as="points">
              <mxPoint x="1030" y="1200" />
              <mxPoint x="-300" y="1200" />
              <mxPoint x="-300" y="2459" />
            </Array>
          </mxGeometry>
        </mxCell>
      </root>
    </mxGraphModel>
  </diagram>
</mxfile>
